<svg t="1689612325543" class="icon" viewBox="0 0 1024 1024" version="1.1" xmlns="http://www.w3.org/2000/svg" p-id="7777" width="200" height="200"><path d="M959.999428 760.063547V895.999466a63.999962 63.999962 0 0 1-63.999962 63.999962H760.063547A509.695696 509.695696 0 0 1 511.999695 1023.99939C229.247863 1023.99939 0 794.751527 0 511.999695S229.247863 0 511.999695 0s511.999695 229.247863 511.999695 511.999695c0 90.025946-23.210986 174.591896-63.999962 248.063852z m-661.332606-418.72975a63.999962 63.999962 0 0 0-63.999962 63.999962v63.999961a63.999962 63.999962 0 0 0 127.999924 0v-63.999961a63.999962 63.999962 0 0 0-63.999962-63.999962z m319.999809 0a63.999962 63.999962 0 0 0-63.999961 63.999962v63.999961a63.999962 63.999962 0 0 0 127.999923 0v-63.999961a63.999962 63.999962 0 0 0-63.999962-63.999962z" fill="#00C8C8" p-id="7778"></path></svg>